<mxfile host="app.diagrams.net" modified="2023-11-06T15:46:34.346Z" agent="Mozilla/5.0 (Windows NT 10.0; Win64; x64) AppleWebKit/537.36 (KHTML, like Gecko) Chrome/119.0.0.0 Safari/537.36" etag="v5CVdfGA7NXb0RL3rKNc" version="22.0.8" type="device">
  <diagram id="C5RBs43oDa-KdzZeNtuy" name="Page-1">
    <mxGraphModel dx="880" dy="1653" grid="1" gridSize="10" guides="1" tooltips="1" connect="1" arrows="1" fold="1" page="1" pageScale="1" pageWidth="827" pageHeight="1169" math="0" shadow="0">
      <root>
        <mxCell id="WIyWlLk6GJQsqaUBKTNV-0" />
        <mxCell id="WIyWlLk6GJQsqaUBKTNV-1" parent="WIyWlLk6GJQsqaUBKTNV-0" />
        <mxCell id="t9tadbMyCJjW3E7NO49P-1" style="edgeStyle=orthogonalEdgeStyle;rounded=0;orthogonalLoop=1;jettySize=auto;html=1;exitX=0.5;exitY=1;exitDx=0;exitDy=0;" edge="1" parent="WIyWlLk6GJQsqaUBKTNV-1" source="t9tadbMyCJjW3E7NO49P-0">
          <mxGeometry relative="1" as="geometry">
            <mxPoint x="140" y="530" as="targetPoint" />
          </mxGeometry>
        </mxCell>
        <mxCell id="t9tadbMyCJjW3E7NO49P-0" value="start" style="ellipse;whiteSpace=wrap;html=1;" vertex="1" parent="WIyWlLk6GJQsqaUBKTNV-1">
          <mxGeometry x="80" y="370" width="120" height="80" as="geometry" />
        </mxCell>
        <mxCell id="t9tadbMyCJjW3E7NO49P-4" value="" style="edgeStyle=orthogonalEdgeStyle;rounded=0;orthogonalLoop=1;jettySize=auto;html=1;" edge="1" parent="WIyWlLk6GJQsqaUBKTNV-1">
          <mxGeometry relative="1" as="geometry">
            <mxPoint x="139.5" y="515" as="sourcePoint" />
            <mxPoint x="139.5" y="655" as="targetPoint" />
          </mxGeometry>
        </mxCell>
        <mxCell id="t9tadbMyCJjW3E7NO49P-6" value="ước số chung lớn nhất là n" style="rounded=0;whiteSpace=wrap;html=1;" vertex="1" parent="WIyWlLk6GJQsqaUBKTNV-1">
          <mxGeometry x="680" y="810" width="120" height="60" as="geometry" />
        </mxCell>
        <mxCell id="t9tadbMyCJjW3E7NO49P-10" value="a,b,c" style="shape=parallelogram;perimeter=parallelogramPerimeter;whiteSpace=wrap;html=1;fixedSize=1;" vertex="1" parent="WIyWlLk6GJQsqaUBKTNV-1">
          <mxGeometry x="80" y="540" width="120" height="60" as="geometry" />
        </mxCell>
        <mxCell id="t9tadbMyCJjW3E7NO49P-11" value="min =a" style="rounded=0;whiteSpace=wrap;html=1;" vertex="1" parent="WIyWlLk6GJQsqaUBKTNV-1">
          <mxGeometry x="80" y="660" width="120" height="60" as="geometry" />
        </mxCell>
        <mxCell id="t9tadbMyCJjW3E7NO49P-15" style="edgeStyle=orthogonalEdgeStyle;rounded=0;orthogonalLoop=1;jettySize=auto;html=1;exitX=0.5;exitY=1;exitDx=0;exitDy=0;entryX=0.5;entryY=0;entryDx=0;entryDy=0;" edge="1" parent="WIyWlLk6GJQsqaUBKTNV-1" source="t9tadbMyCJjW3E7NO49P-13" target="t9tadbMyCJjW3E7NO49P-14">
          <mxGeometry relative="1" as="geometry" />
        </mxCell>
        <mxCell id="t9tadbMyCJjW3E7NO49P-13" value="start" style="ellipse;whiteSpace=wrap;html=1;" vertex="1" parent="WIyWlLk6GJQsqaUBKTNV-1">
          <mxGeometry x="1170" y="-420" width="120" height="80" as="geometry" />
        </mxCell>
        <mxCell id="t9tadbMyCJjW3E7NO49P-17" style="edgeStyle=orthogonalEdgeStyle;rounded=0;orthogonalLoop=1;jettySize=auto;html=1;entryX=0.5;entryY=0;entryDx=0;entryDy=0;" edge="1" parent="WIyWlLk6GJQsqaUBKTNV-1" source="t9tadbMyCJjW3E7NO49P-14" target="t9tadbMyCJjW3E7NO49P-16">
          <mxGeometry relative="1" as="geometry" />
        </mxCell>
        <mxCell id="t9tadbMyCJjW3E7NO49P-14" value="a,b,c,min" style="shape=parallelogram;perimeter=parallelogramPerimeter;whiteSpace=wrap;html=1;fixedSize=1;" vertex="1" parent="WIyWlLk6GJQsqaUBKTNV-1">
          <mxGeometry x="1170" y="-260" width="120" height="50" as="geometry" />
        </mxCell>
        <mxCell id="t9tadbMyCJjW3E7NO49P-19" style="edgeStyle=orthogonalEdgeStyle;rounded=0;orthogonalLoop=1;jettySize=auto;html=1;" edge="1" parent="WIyWlLk6GJQsqaUBKTNV-1" source="t9tadbMyCJjW3E7NO49P-16" target="t9tadbMyCJjW3E7NO49P-18">
          <mxGeometry relative="1" as="geometry" />
        </mxCell>
        <mxCell id="t9tadbMyCJjW3E7NO49P-16" value="min =A" style="rounded=0;whiteSpace=wrap;html=1;" vertex="1" parent="WIyWlLk6GJQsqaUBKTNV-1">
          <mxGeometry x="1170" y="-160" width="120" height="60" as="geometry" />
        </mxCell>
        <mxCell id="t9tadbMyCJjW3E7NO49P-20" style="edgeStyle=orthogonalEdgeStyle;rounded=0;orthogonalLoop=1;jettySize=auto;html=1;exitX=0.5;exitY=1;exitDx=0;exitDy=0;" edge="1" parent="WIyWlLk6GJQsqaUBKTNV-1" source="t9tadbMyCJjW3E7NO49P-18">
          <mxGeometry relative="1" as="geometry">
            <mxPoint x="1230" y="80" as="targetPoint" />
          </mxGeometry>
        </mxCell>
        <mxCell id="t9tadbMyCJjW3E7NO49P-18" value="min&amp;gt;b" style="rhombus;whiteSpace=wrap;html=1;" vertex="1" parent="WIyWlLk6GJQsqaUBKTNV-1">
          <mxGeometry x="1190" y="-40" width="80" height="80" as="geometry" />
        </mxCell>
        <mxCell id="t9tadbMyCJjW3E7NO49P-21" value="" style="rhombus;whiteSpace=wrap;html=1;" vertex="1" parent="WIyWlLk6GJQsqaUBKTNV-1">
          <mxGeometry x="300" y="110" width="80" height="80" as="geometry" />
        </mxCell>
        <mxCell id="t9tadbMyCJjW3E7NO49P-25" style="edgeStyle=orthogonalEdgeStyle;rounded=0;orthogonalLoop=1;jettySize=auto;html=1;" edge="1" parent="WIyWlLk6GJQsqaUBKTNV-1" source="t9tadbMyCJjW3E7NO49P-22" target="t9tadbMyCJjW3E7NO49P-23">
          <mxGeometry relative="1" as="geometry" />
        </mxCell>
        <mxCell id="t9tadbMyCJjW3E7NO49P-30" value="true" style="edgeStyle=orthogonalEdgeStyle;rounded=0;orthogonalLoop=1;jettySize=auto;html=1;" edge="1" parent="WIyWlLk6GJQsqaUBKTNV-1" source="t9tadbMyCJjW3E7NO49P-22" target="t9tadbMyCJjW3E7NO49P-18">
          <mxGeometry relative="1" as="geometry" />
        </mxCell>
        <mxCell id="t9tadbMyCJjW3E7NO49P-22" value="min =b" style="rounded=0;whiteSpace=wrap;html=1;" vertex="1" parent="WIyWlLk6GJQsqaUBKTNV-1">
          <mxGeometry x="1170" y="80" width="120" height="60" as="geometry" />
        </mxCell>
        <mxCell id="t9tadbMyCJjW3E7NO49P-26" value="true" style="edgeStyle=orthogonalEdgeStyle;rounded=0;orthogonalLoop=1;jettySize=auto;html=1;" edge="1" parent="WIyWlLk6GJQsqaUBKTNV-1" source="t9tadbMyCJjW3E7NO49P-23">
          <mxGeometry relative="1" as="geometry">
            <mxPoint x="1230" y="290" as="targetPoint" />
          </mxGeometry>
        </mxCell>
        <mxCell id="t9tadbMyCJjW3E7NO49P-23" value="min &amp;gt;c" style="rhombus;whiteSpace=wrap;html=1;" vertex="1" parent="WIyWlLk6GJQsqaUBKTNV-1">
          <mxGeometry x="1190" y="170" width="80" height="70" as="geometry" />
        </mxCell>
        <mxCell id="t9tadbMyCJjW3E7NO49P-28" style="edgeStyle=orthogonalEdgeStyle;rounded=0;orthogonalLoop=1;jettySize=auto;html=1;exitX=0.5;exitY=1;exitDx=0;exitDy=0;" edge="1" parent="WIyWlLk6GJQsqaUBKTNV-1" source="t9tadbMyCJjW3E7NO49P-27">
          <mxGeometry relative="1" as="geometry">
            <mxPoint x="1240" y="380" as="targetPoint" />
          </mxGeometry>
        </mxCell>
        <mxCell id="t9tadbMyCJjW3E7NO49P-27" value="min =c" style="rounded=0;whiteSpace=wrap;html=1;" vertex="1" parent="WIyWlLk6GJQsqaUBKTNV-1">
          <mxGeometry x="1180" y="290" width="120" height="60" as="geometry" />
        </mxCell>
        <mxCell id="t9tadbMyCJjW3E7NO49P-29" value="end" style="ellipse;whiteSpace=wrap;html=1;" vertex="1" parent="WIyWlLk6GJQsqaUBKTNV-1">
          <mxGeometry x="1180" y="480" width="120" height="80" as="geometry" />
        </mxCell>
        <mxCell id="t9tadbMyCJjW3E7NO49P-32" style="edgeStyle=orthogonalEdgeStyle;rounded=0;orthogonalLoop=1;jettySize=auto;html=1;entryX=0.5;entryY=0;entryDx=0;entryDy=0;" edge="1" parent="WIyWlLk6GJQsqaUBKTNV-1" source="t9tadbMyCJjW3E7NO49P-31" target="t9tadbMyCJjW3E7NO49P-29">
          <mxGeometry relative="1" as="geometry" />
        </mxCell>
        <mxCell id="t9tadbMyCJjW3E7NO49P-31" value="min" style="shape=parallelogram;perimeter=parallelogramPerimeter;whiteSpace=wrap;html=1;fixedSize=1;" vertex="1" parent="WIyWlLk6GJQsqaUBKTNV-1">
          <mxGeometry x="1181" y="380" width="120" height="50" as="geometry" />
        </mxCell>
      </root>
    </mxGraphModel>
  </diagram>
</mxfile>
